<?xml version="1.0" ?>
<!-- Uploaded to: SVG Repo, www.svgrepo.com, Generator: SVG Repo Mixer Tools -->
<svg width="800px" height="800px" viewBox="0 0 64 64" id="Layer_1" version="1.1" xml:space="preserve" xmlns="http://www.w3.org/2000/svg" xmlns:xlink="http://www.w3.org/1999/xlink">
<style type="text/css">
	.st0{fill:#FFFFFF;}
	.st1{fill:#101820;}
</style>
<g>
<g>
<circle class="st0" cx="32" cy="32" r="32"/>
</g>
<g>
<path class="st1" d="M56,26.5h-3c-0.276,0-0.5-0.224-0.5-0.5v-1c0-1.379-1.121-2.5-2.5-2.5s-2.5,1.121-2.5,2.5v1    c0,0.276-0.224,0.5-0.5,0.5s-0.5-0.224-0.5-0.5v-0.5c0-0.552-0.448-1-1-1s-1,0.448-1,1V26c0,0.276-0.224,0.5-0.5,0.5h-3    c-0.276,0-0.5-0.224-0.5-0.5s0.224-0.5,0.5-0.5h2.5c0-1.103,0.897-2,2-2c0.441,0,0.851,0.144,1.182,0.387    C47.147,22.501,48.459,21.5,50,21.5c1.93,0,3.5,1.57,3.5,3.5v0.5H56c0.276,0,0.5,0.224,0.5,0.5S56.276,26.5,56,26.5z"/>
</g>
<g>
<path class="st1" d="M15,28.5h-4c-0.276,0-0.5-0.224-0.5-0.5s0.224-0.5,0.5-0.5h4c0.276,0,0.5,0.224,0.5,0.5S15.276,28.5,15,28.5z    "/>
</g>
<g>
<path class="st1" d="M32,27.5c-2.481,0-4.5-2.019-4.5-4.5v-3c0-0.864,0.522-2.5,2.5-2.5c0.996,0,1.623,0.415,2,0.938    c0.377-0.522,1.004-0.938,2-0.938c1.978,0,2.5,1.636,2.5,2.5v3C36.5,25.481,34.481,27.5,32,27.5z M30,18.5    c-1.411,0-1.497,1.252-1.5,1.503V23c0,1.93,1.57,3.5,3.5,3.5s3.5-1.57,3.5-3.5v-3c-0.003-0.248-0.089-1.5-1.5-1.5    s-1.497,1.251-1.5,1.503C32.499,20.277,32.275,20.5,32,20.5c-0.271,0-0.492-0.216-0.5-0.485l0,0c0-0.001,0-0.001,0-0.002l0,0    v-0.001c0-0.001,0-0.001,0-0.001V20.01l0,0c0-0.002,0-0.005,0-0.007l0,0c0-0.001,0-0.002,0-0.003    C31.497,19.752,31.411,18.5,30,18.5z"/>
</g>
<g>
<path class="st1" d="M31,22.5h-1c-0.276,0-0.5-0.224-0.5-0.5s0.224-0.5,0.5-0.5h1c0.276,0,0.5,0.224,0.5,0.5S31.276,22.5,31,22.5z    "/>
</g>
<g>
<path class="st1" d="M34,22.5h-1c-0.276,0-0.5-0.224-0.5-0.5s0.224-0.5,0.5-0.5h1c0.276,0,0.5,0.224,0.5,0.5S34.276,22.5,34,22.5z    "/>
</g>
<g>
<path class="st1" d="M28,23.5h-0.5c-1.103,0-2-0.897-2-2s0.897-2,2-2H28c0.276,0,0.5,0.224,0.5,0.5v3    C28.5,23.276,28.276,23.5,28,23.5z M27.5,20.5c-0.552,0-1,0.448-1,1s0.448,1,1,1V20.5z"/>
</g>
<g>
<path class="st1" d="M36.5,23.5H36c-0.276,0-0.5-0.224-0.5-0.5v-3c0-0.276,0.224-0.5,0.5-0.5h0.5c1.103,0,2,0.897,2,2    S37.603,23.5,36.5,23.5z M36.5,22.5h0.01H36.5z M36.5,20.5v2c0.552,0,1-0.448,1-1S37.052,20.5,36.5,20.5z"/>
</g>
<g>
<path class="st1" d="M38,21.5c-0.212,0-0.492-0.133-0.563-0.332c-0.143-0.399-0.52-0.668-0.938-0.668H36    c-0.276,0-0.5-0.224-0.5-0.5c-0.003-0.248-0.089-1.5-1.5-1.5s-1.497,1.251-1.5,1.503C32.499,20.277,32.275,20.5,32,20.5    c-0.271,0-0.492-0.216-0.5-0.485l0,0c0-0.001,0-0.001,0-0.002l0,0v-0.001c0-0.001,0-0.001,0-0.001V20.01l0,0    c0-0.002,0-0.005,0-0.007l0,0c0-0.001,0-0.002,0-0.003c-0.003-0.248-0.089-1.5-1.5-1.5s-1.497,1.252-1.5,1.503    C28.497,20.276,28.273,20.5,28,20.5h-0.5c-0.418,0-0.795,0.269-0.938,0.668c-0.07,0.199-0.259,0.332-0.471,0.332    c-0.133,0-0.352-0.053-0.445-0.146C25.6,21.307,24.5,20.182,24.5,18c0-2.054,0.975-5.5,7.5-5.5s7.5,3.446,7.5,5.5    c0,2.182-1.1,3.307-1.146,3.354C38.26,21.447,38.133,21.5,38,21.5z M38,21h0.01H38z M36.449,19.5H36.5    c0.575,0,1.11,0.251,1.482,0.665C38.222,19.735,38.5,19.017,38.5,18c0-2.944-2.248-4.5-6.5-4.5s-6.5,1.556-6.5,4.5    c0,1.017,0.278,1.734,0.518,2.165C26.39,19.751,26.925,19.5,27.5,19.5h0.051c0.171-0.877,0.811-2,2.449-2    c0.996,0,1.623,0.415,2,0.938c0.377-0.522,1.004-0.938,2-0.938C35.639,17.5,36.278,18.623,36.449,19.5z"/>
</g>
<g>
<path class="st1" d="M32,13.5c-1.955,0-3.5,0-3.5-2.5c0-1.978,2.289-2.5,3.5-2.5s3.5,0.522,3.5,2.5C35.5,13.5,33.955,13.5,32,13.5    z M32,9.5c-0.056,0-2.5,0.034-2.5,1.5c0,1.454,0.396,1.5,2.5,1.5s2.5-0.046,2.5-1.5C34.5,9.534,32.056,9.5,32,9.5z"/>
</g>
<g>
<path class="st1" d="M32,15.5c-4.159,0-6.266-2.059-6.354-2.146c-0.194-0.194-0.194-0.51-0.001-0.705    c0.195-0.197,0.512-0.196,0.707-0.003C26.371,12.664,28.278,14.5,32,14.5s5.629-1.836,5.647-1.854    c0.195-0.193,0.512-0.194,0.707,0.003c0.193,0.195,0.193,0.511-0.001,0.705C38.266,13.441,36.159,15.5,32,15.5z"/>
</g>
<g>
<path class="st1" d="M30,41.5c-0.276,0-0.5-0.224-0.5-0.5v-2.5H26c-0.276,0-0.5-0.224-0.5-0.5s0.224-0.5,0.5-0.5h4    c0.276,0,0.5,0.224,0.5,0.5v3C30.5,41.276,30.276,41.5,30,41.5z"/>
</g>
<g>
<path class="st1" d="M27,38.5c-0.276,0-0.5-0.224-0.5-0.5v-5c0-0.276,0.224-0.5,0.5-0.5s0.5,0.224,0.5,0.5v5    C27.5,38.276,27.276,38.5,27,38.5z"/>
</g>
<g>
<path class="st1" d="M37,38.5c-0.276,0-0.5-0.224-0.5-0.5v-5c0-0.276,0.224-0.5,0.5-0.5s0.5,0.224,0.5,0.5v5    C37.5,38.276,37.276,38.5,37,38.5z"/>
</g>
<g>
<path class="st1" d="M35,41.5h-5c-0.276,0-0.5-0.224-0.5-0.5s0.224-0.5,0.5-0.5h4.5v-1H33c-0.133,0-0.26-0.053-0.354-0.146    L31.793,38.5H30c-0.276,0-0.5-0.224-0.5-0.5s0.224-0.5,0.5-0.5h2c0.133,0,0.26,0.053,0.354,0.146l0.854,0.854H35    c0.276,0,0.5,0.224,0.5,0.5v2C35.5,41.276,35.276,41.5,35,41.5z"/>
</g>
<g>
<path class="st1" d="M38,38.5h-2c-0.276,0-0.5-0.224-0.5-0.5s0.224-0.5,0.5-0.5h2c0.276,0,0.5,0.224,0.5,0.5S38.276,38.5,38,38.5z    "/>
</g>
<g>
<path class="st1" d="M30,41.5h-5.221c-1.257,0-2.279-1.022-2.279-2.279v-7.072c0-2.062,1.467-3.852,3.488-4.256l1.924-0.384    c0.137-0.027,0.277,0.004,0.39,0.085c0.113,0.081,0.187,0.205,0.204,0.343C28.658,29.149,30.131,30.5,32,30.5    c0.553,0,1.089-0.114,1.596-0.34c0.249-0.111,0.547,0.001,0.66,0.254c0.112,0.252-0.001,0.548-0.254,0.66    C33.367,31.356,32.693,31.5,32,31.5c-1.988,0-3.859-1.289-4.371-2.915l-1.444,0.288c-1.556,0.312-2.685,1.689-2.685,3.275v7.072    c0,0.705,0.574,1.279,1.279,1.279H30c0.276,0,0.5,0.224,0.5,0.5S30.276,41.5,30,41.5z"/>
</g>
<g>
<path class="st1" d="M39.221,41.5H35c-0.276,0-0.5-0.224-0.5-0.5s0.224-0.5,0.5-0.5h4.221c0.705,0,1.279-0.574,1.279-1.279v-7.072    c0-1.587-1.129-2.965-2.685-3.275l-1.891-0.378c-0.218-0.023-0.706-0.101-1.216-0.348c-0.248-0.121-0.352-0.42-0.231-0.669    c0.121-0.247,0.421-0.353,0.669-0.231c0.447,0.218,0.895,0.254,0.899,0.254c0.034,0.003,0.068,0.009,0.101,0.019l1.864,0.373    c2.021,0.403,3.489,2.193,3.489,4.256v7.072C41.5,40.478,40.478,41.5,39.221,41.5z"/>
</g>
<g>
<path class="st1" d="M32,31.5c-2.159,0-4.18-1.521-4.473-3.341C27.51,28.108,27.5,28.055,27.5,28c0-0.259,0.201-0.476,0.459-0.498    c0.143-0.013,1.395-0.151,1.718-1.131c0.046-0.14,0.151-0.252,0.287-0.308c0.138-0.056,0.29-0.046,0.42,0.021    c1.049,0.551,2.184,0.551,3.232,0c0.13-0.067,0.282-0.077,0.42-0.021c0.137,0.056,0.241,0.168,0.287,0.308    c0.124,0.376,0.4,0.671,0.823,0.877c0.248,0.12,0.352,0.42,0.23,0.668c-0.12,0.249-0.422,0.354-0.668,0.23    c-0.478-0.232-0.851-0.559-1.101-0.959c-1.046,0.416-2.168,0.415-3.216,0.001c-0.456,0.739-1.232,1.063-1.771,1.204    C29.031,29.465,30.363,30.5,32,30.5c0.574,0,1.153-0.131,1.677-0.378c0.251-0.115,0.548-0.012,0.666,0.238    s0.011,0.548-0.238,0.666C33.448,31.336,32.721,31.5,32,31.5z"/>
</g>
<g>
<path class="st1" d="M33,35.273c-0.2,0-0.39-0.121-0.467-0.319c-0.1-0.258,0.029-0.548,0.286-0.647    c1.799-0.695,2.725-2.512,2.733-2.53c0.124-0.247,0.425-0.346,0.671-0.224c0.247,0.124,0.347,0.424,0.224,0.671    c-0.044,0.089-1.111,2.183-3.267,3.017C33.121,35.263,33.061,35.273,33,35.273z"/>
</g>
<g>
<path class="st1" d="M26,41.5c-0.183,0-0.359-0.102-0.447-0.276c-0.123-0.247-0.023-0.547,0.224-0.671    C27.48,39.701,27.5,38.017,27.5,38c0-0.276,0.224-0.5,0.5-0.5s0.5,0.224,0.5,0.5c0,0.095-0.026,2.322-2.276,3.447    C26.151,41.483,26.075,41.5,26,41.5z"/>
</g>
<g>
<path class="st1" d="M27,34.5c-0.09,0-2.231-0.024-4.354-2.146c-0.195-0.195-0.195-0.512,0-0.707s0.512-0.195,0.707,0    c1.813,1.813,3.631,1.854,3.649,1.854c0.274,0.003,0.497,0.228,0.496,0.503C27.497,34.277,27.275,34.5,27,34.5z"/>
</g>
<g>
<path class="st1" d="M27,37.5c-2.658,0-4.089-2.186-4.475-3.342c-0.087-0.262,0.054-0.544,0.315-0.632    c0.262-0.086,0.545,0.053,0.633,0.314C23.511,33.949,24.406,36.5,27,36.5c0.276,0,0.5,0.224,0.5,0.5S27.276,37.5,27,37.5z"/>
</g>
<g>
<path class="st1" d="M37,36.5c-0.275,0-0.498-0.223-0.499-0.498s0.222-0.5,0.497-0.502c0.108-0.001,2.658-0.049,3.527-2.658    c0.088-0.262,0.373-0.401,0.633-0.316c0.262,0.088,0.403,0.371,0.316,0.633C40.593,35.802,38.162,36.5,37,36.5z"/>
</g>
<g>
<path class="st1" d="M34,37.97c-0.171,0-0.338-0.088-0.431-0.246c-0.141-0.238-0.061-0.545,0.177-0.685    c0.512-0.301,0.958-0.742,1.326-1.311c0.151-0.233,0.462-0.294,0.691-0.148c0.232,0.15,0.298,0.46,0.148,0.691    c-0.454,0.701-1.012,1.249-1.658,1.629C34.174,37.947,34.087,37.97,34,37.97z"/>
</g>
<g>
<path class="st1" d="M30,37c-0.183,0-0.359-0.102-0.447-0.276c-0.123-0.247-0.023-0.547,0.224-0.671l1-0.5    c0.248-0.124,0.547-0.023,0.671,0.224c0.123,0.247,0.023,0.547-0.224,0.671l-1,0.5C30.151,36.983,30.075,37,30,37z"/>
</g>
<g>
<path class="st1" d="M32,47.5c-3.032,0-5.5-2.916-5.5-6.5c0-0.276,0.224-0.5,0.5-0.5h2c0.276,0,0.5,0.224,0.5,0.5    c0,1.709,1.121,3.1,2.5,3.1s2.5-1.391,2.5-3.1c0-0.276,0.224-0.5,0.5-0.5h2c0.276,0,0.5,0.224,0.5,0.5    C37.5,44.584,35.032,47.5,32,47.5z M27.519,41.5c0.207,2.8,2.138,5,4.481,5s4.274-2.2,4.481-5h-1.008    c-0.211,2.025-1.688,3.6-3.474,3.6s-3.263-1.574-3.474-3.6H27.519z"/>
</g>
<g>
<path class="st1" d="M27,46.5h-4.382c-0.481,0-0.964-0.114-1.395-0.329C20.16,45.64,19.5,44.57,19.5,43.382v-0.244    c0-1.476,1.049-2.76,2.493-3.056l1.288-0.263c0.266-0.054,0.534,0.119,0.59,0.391c0.055,0.271-0.12,0.534-0.391,0.59l-1.287,0.263    c-0.981,0.2-1.693,1.073-1.693,2.075v0.244c0,0.808,0.448,1.533,1.171,1.895c0.293,0.146,0.62,0.224,0.947,0.224H27    c0.276,0,0.5,0.224,0.5,0.5S27.276,46.5,27,46.5z"/>
</g>
<g>
<path class="st1" d="M41.382,46.5H37c-0.276,0-0.5-0.224-0.5-0.5s0.224-0.5,0.5-0.5h4.382c0.327,0,0.654-0.077,0.947-0.224    c0.723-0.361,1.171-1.087,1.171-1.895v-0.244c0-1.002-0.712-1.875-1.694-2.075L40.52,40.8c-0.271-0.056-0.445-0.319-0.391-0.59    c0.056-0.271,0.324-0.444,0.59-0.391l1.287,0.263c1.445,0.296,2.494,1.58,2.494,3.056v0.244c0,1.188-0.66,2.258-1.724,2.789    C42.346,46.386,41.863,46.5,41.382,46.5z"/>
</g>
<g>
<path class="st1" d="M44,48.5H20c-0.827,0-1.5-0.673-1.5-1.5s0.673-1.5,1.5-1.5h3c0.276,0,0.5,0.224,0.5,0.5s-0.224,0.5-0.5,0.5    h-3c-0.275,0-0.5,0.225-0.5,0.5s0.225,0.5,0.5,0.5h24c0.275,0,0.5-0.225,0.5-0.5s-0.225-0.5-0.5-0.5h-3    c-0.276,0-0.5-0.224-0.5-0.5s0.224-0.5,0.5-0.5h3c0.827,0,1.5,0.673,1.5,1.5S44.827,48.5,44,48.5z"/>
</g>
<g>
<path class="st1" d="M46,50.5H18c-0.202,0-0.385-0.122-0.462-0.309s-0.034-0.402,0.108-0.545l2-2    C19.74,47.553,19.867,47.5,20,47.5h24c0.133,0,0.26,0.053,0.354,0.146l2,2c0.143,0.143,0.186,0.358,0.108,0.545    S46.202,50.5,46,50.5z M19.207,49.5h25.586l-1-1H20.207L19.207,49.5z"/>
</g>
<g>
<path class="st1" d="M48,52.5c-0.276,0-0.5-0.224-0.5-0.5v-1.045c0-0.251-0.204-0.455-0.455-0.455h-30.09    c-0.251,0-0.455,0.204-0.455,0.455V52c0,0.276-0.224,0.5-0.5,0.5s-0.5-0.224-0.5-0.5v-1.045c0-0.803,0.652-1.455,1.455-1.455    h30.09c0.803,0,1.455,0.652,1.455,1.455V52C48.5,52.276,48.276,52.5,48,52.5z"/>
</g>
<g>
<path class="st1" d="M44,52.5H20c-0.276,0-0.5-0.224-0.5-0.5s0.224-0.5,0.5-0.5h24c0.276,0,0.5,0.224,0.5,0.5S44.276,52.5,44,52.5    z"/>
</g>
<g>
<path class="st1" d="M22,46.5c-0.276,0-0.5-0.224-0.5-0.5s0.224-0.5,0.5-0.5c1.67,0,2.654-1.468,3.187-2.698    c0.11-0.253,0.404-0.372,0.657-0.261c0.254,0.109,0.37,0.403,0.261,0.657C25.185,45.327,23.728,46.5,22,46.5z"/>
</g>
<g>
<path class="st1" d="M42,46.5c-1.728,0-3.185-1.173-4.104-3.302c-0.109-0.254,0.007-0.548,0.261-0.657    c0.252-0.11,0.547,0.008,0.657,0.261C39.346,44.032,40.33,45.5,42,45.5c0.276,0,0.5,0.224,0.5,0.5S42.276,46.5,42,46.5z"/>
</g>
<g>
<path class="st1" d="M27,36.5c-0.202,0-0.393-0.124-0.468-0.324c-0.098-0.259,0.033-0.547,0.292-0.644    c6.07-2.276,7.345-6.296,7.611-7.918c0.045-0.273,0.305-0.462,0.574-0.412c0.272,0.045,0.457,0.302,0.412,0.574    c-0.294,1.794-1.688,6.232-8.246,8.691C27.118,36.49,27.059,36.5,27,36.5z"/>
</g>
</g>
</svg>